:SAMPLES-PER-SECOND 30
:FRAME-RANGE 1-2775
:FULLY-SPECIFIED
:DEGREES
434
root  -79.722 39.2173 -21.1025 3.95369 38.7858 0.0992432
RightUpLeg  -17.8138 -8.50002 -12.2433
RightLeg  5.03435 -16.9153 -2.01075
RightFoot  -1.17075 -0.679502 7.53479
RightToes  1.218e-010 1.26228e-014 -6.01869e-014
Spine  -8.36833 -2.41705 -2.29113
Spine1  9.30815 -3.23564 2.70854
HEad  2.6611 24.0636 2.86583
LeftShoulder1  2.78929 -6.48075 -22.4609
LeftArm  2.16976 -2.83062 -56.2172
LeftForeArm  39.0641 6.95174 -15.0271
LeftHand  0.0016356 6.68901 3.33221
RightShoulder  1.5935 1.23034 29.1834
RightArm  -28.6708 -13.5693 46.2424
RightForeArm  70.0647 -5.14738 2.58669
RightHand  0.185981 -6.6275 -18.667
LeftUpLeg  2.85609 6.36689 3.67449
LeftLeg  8.5253 10.0868 1.875
LeftFoot  -12.4063 0.00915122 -6.99872
LeftToes  5.08156e-010 -6.90346e-011 -6.33378e-011
435
root  -79.8729 39.0632 -20.3489 4.54964 36.8878 0.62677
RightUpLeg  -18.3647 -8.80647 -12.7998
RightLeg  4.4776 -18.8768 -2.06763
RightFoot  -0.569839 -0.691839 7.28691
RightToes  1.218e-010 1.26228e-014 -6.01869e-014
Spine  -8.82089 -2.50111 -2.02218
Spine1  9.59504 -3.34091 2.69122
HEad  4.12213 22.1249 2.71286
LeftShoulder1  2.73306 -6.11754 -22.9924
LeftArm  1.15999 -1.4207 -56.1393
LeftForeArm  40.2505 7.0348 -14.8412
LeftHand  0.00497756 6.65302 3.39467
RightShoulder  1.51956 1.01303 29.231
RightArm  -29.071 -14.5657 45.6639
RightForeArm  68.9891 -5.15646 2.39291
RightHand  0.167747 -6.51702 -18.6147
LeftUpLeg  3.7969 6.43891 3.89709
LeftLeg  8.4085 11.6189 2.2484
LeftFoot  -12.8939 -0.0395384 -8.59748
LeftToes  5.08156e-010 -6.90346e-011 -6.33378e-011
436
root  -80.0779 38.9006 -19.4809 4.89481 35.3275 0.939148
RightUpLeg  -18.6628 -9.11464 -12.834
RightLeg  5.14339 -21.4027 -2.34198
RightFoot  -0.0943429 -0.667994 6.76917
RightToes  1.218e-010 1.26228e-014 -6.01869e-014
Spine  -9.27263 -2.61126 -1.87685
Spine1  10.0034 -3.59718 3.0932
HEad  5.66957 19.9724 2.35657
LeftShoulder1  2.70012 -5.86052 -23.4719
LeftArm  1.60358 -0.575121 -55.9213
LeftForeArm  41.724 6.88423 -14.9216
LeftHand  0.0146143 6.8908 3.66455
RightShoulder  1.45167 0.825002 29.179
RightArm  -29.2338 -15.2721 44.9983
RightForeArm  68.272 -5.16721 2.29365
RightHand  0.165195 -6.49815 -18.6563
LeftUpLeg  4.92558 6.82255 4.69299
LeftLeg  8.36452 12.3094 2.33599
LeftFoot  -13.342 -0.104784 -10.544
LeftToes  5.08156e-010 -6.90346e-011 -6.33378e-011
437
root  -80.3643 38.7777 -18.5415 5.20567 33.8034 1.01559
RightUpLeg  -18.9446 -8.98358 -12.1079
RightLeg  6.61378 -24.3823 -3.02519
RightFoot  0.591013 -0.584895 5.63004
RightToes  1.218e-010 1.26228e-014 -6.01869e-014
Spine  -9.49131 -2.63923 -1.4075
Spine1  10.1905 -3.77456 3.47381
HEad  7.02631 17.6499 1.98083
LeftShoulder1  2.62162 -5.60055 -23.4487
LeftArm  1.56096 0.296119 -55.6766
LeftForeArm  42.683 6.86517 -14.8768
LeftHand  0.0190384 6.85838 4.04325
RightShoulder  1.37572 0.603689 29.2155
RightArm  -29.585 -15.688 44.411
RightForeArm  67.8291 -5.14704 2.07393
RightHand  0.140238 -6.39541 -17.8013
LeftUpLeg  6.01396 7.25155 5.85171
LeftLeg  8.23553 12.8567 2.42578
LeftFoot  -13.2081 -0.12708 -12.599
LeftToes  5.08156e-010 -6.90346e-011 -6.33378e-011
438
root  -80.7026 38.7801 -17.5139 5.07814 31.7588 0.367615
RightUpLeg  -19.0363 -7.71558 -10.3953
RightLeg  7.90074 -28.2389 -3.98642
RightFoot  2.79897 -0.866294 7.13
RightToes  1.218e-010 1.26228e-014 -6.01869e-014
Spine  -9.54705 -2.30098 0.143797
Spine1  10.419 -3.73775 4.05608
HEad  7.86299 15.7517 1.42866
LeftShoulder1  2.52446 -5.26121 -23.4815
LeftArm  1.16162 1.44265 -54.9471
LeftForeArm  42.1274 6.99989 -14.7494
LeftHand  0.0249656 7.25874 3.69395
RightShoulder  1.33953 0.489058 29.3218
RightArm  -29.8997 -15.5775 43.8213
RightForeArm  68.0091 -5.09773 1.82202
RightHand  0.202198 -6.6682 -19.4449
LeftUpLeg  7.67433 7.74135 7.71903
LeftLeg  7.38962 13.6696 2.45392
LeftFoot  -11.8241 0.00423526 -15.6447
LeftToes  5.08156e-010 -6.90346e-011 -6.33378e-011
439
root  -81.1024 38.8357 -16.3796 4.86372 29.3493 -0.647766
RightUpLeg  -19.3006 -6.03688 -8.22371
RightLeg  8.4006 -28.2157 -4.07144
RightFoot  6.37078 -1.15531 7.68506
RightToes  1.218e-010 1.26228e-014 -6.01869e-014
Spine  -9.66638 -1.96831 2.37742
Spine1  10.6975 -3.59495 4.10096
HEad  8.23405 14.8104 0.669244
LeftShoulder1  2.38207 -4.72874 -23.6707
LeftArm  1.51914 2.86878 -53.6131
LeftForeArm  40.4288 7.10204 -14.7391
LeftHand  0.0158217 6.64271 4.31359
RightShoulder  1.35706 0.517195 29.5279
RightArm  -30.5608 -14.5719 43.3984
RightForeArm  68.696 -4.98572 1.3144
RightHand  0.204413 -6.70643 -19.1207
LeftUpLeg  9.19219 8.55197 10.2187
LeftLeg  7.17355 14.1883 2.49196
LeftFoot  -9.58693 0.360626 -19.6552
LeftToes  5.08156e-010 -6.90346e-011 -6.33378e-011
440
root  -81.5859 38.8322 -15.1848 4.98262 26.3714 -1.71861
RightUpLeg  -20.4606 -4.919 -5.7097
RightLeg  10.5445 -25.7591 -3.93896
RightFoot  5.89646 -1.10949 7.57664
RightToes  1.218e-010 1.26228e-014 -6.01869e-014
Spine  -9.71077 -1.48011 4.29031
Spine1  10.6706 -3.24877 4.39052
HEad  8.37355 14.6037 -0.606566
LeftShoulder1  2.31028 -4.41156 -23.9735
LeftArm  0.830344 4.43704 -52.3454
LeftForeArm  39.02 7.35141 -14.4694
LeftHand  0.00588547 6.31056 4.40421
RightShoulder  1.3996 0.641827 29.4902
RightArm  -31.0878 -12.8434 43.0999
RightForeArm  69.1167 -4.88825 0.835119
RightHand  0.253685 -6.98891 -19.313
LeftUpLeg  9.38942 9.76126 13.0264
LeftLeg  9.62683 14.3404 3.07275
LeftFoot  -7.03178 0.966461 -24.2449
LeftToes  5.08156e-010 -6.90346e-011 -6.33378e-011
